<svg width="70" height="70" viewBox="0 0 70 70" fill="none" xmlns="http://www.w3.org/2000/svg">
<g clip-path="url(#clip0_80_449)">
<path d="M53.2537 11.9522C53.2537 10.31 52.6127 8.76395 51.4512 7.60238L45.6513 1.8025C44.5058 0.656934 42.8798 0 41.2616 0H40.9092V12.3047H53.2538L53.2537 11.9522Z" fill="#BA121A"/>
<path d="M37.4523 42.3195C37.8448 41.1279 38.5298 40.0184 39.423 39.1192L53.3084 25.2897V16.4062H38.8983C37.7647 16.4062 36.9141 15.489 36.9141 14.3555V0H6.15234C2.7598 0 0 2.7598 0 6.15234V63.8477C0 67.2402 2.7598 70 6.15234 70H47.1014C50.4939 70 53.3084 67.2402 53.3084 63.8477V48.5419L51.0547 50.7408C50.1416 51.6461 49.0722 52.3049 47.8665 52.7075L41.3457 54.8845L40.3523 54.9387C38.71 54.9387 37.1559 54.1395 36.1907 52.8017C35.2334 51.47 34.9731 49.7436 35.4937 48.1835L37.4523 42.3195ZM10.2539 36.9141H30.6951C31.8287 36.9141 32.7459 37.8313 32.7459 38.9648C32.7459 40.0984 31.8287 41.0156 30.6951 41.0156H10.2539C9.12037 41.0156 8.20312 40.0984 8.20312 38.9648C8.20312 37.8313 9.12037 36.9141 10.2539 36.9141ZM8.20312 30.7617C8.20312 29.6282 9.12037 28.7109 10.2539 28.7109H30.6951C31.8287 28.7109 32.7459 29.6282 32.7459 30.7617C32.7459 31.8953 31.8287 32.8125 30.6951 32.8125H10.2539C9.12037 32.8125 8.20312 31.8953 8.20312 30.7617ZM8.20312 47.168C8.20312 46.0344 9.12037 45.1172 10.2539 45.1172H30.6951C31.8287 45.1172 32.7459 46.0344 32.7459 47.168C32.7459 48.3015 31.8287 49.2188 30.6951 49.2188H10.2539C9.12037 49.2188 8.20312 48.3015 8.20312 47.168ZM38.8983 57.4219C40.0318 57.4219 40.949 58.3391 40.949 59.4727C40.949 60.6062 40.0319 61.5234 38.8983 61.5234H26.5936C25.46 61.5234 24.5428 60.6062 24.5428 59.4727C24.5428 58.3391 25.46 57.4219 26.5936 57.4219H38.8983ZM10.2539 24.6094C9.12037 24.6094 8.20312 23.6921 8.20312 22.5586C8.20312 21.4251 9.12037 20.5078 10.2539 20.5078H38.8983C40.0318 20.5078 40.949 21.4251 40.949 22.5586C40.949 23.6921 40.0318 24.6094 38.8983 24.6094H10.2539Z" fill="#BA121A"/>
<path d="M41.1677 44.1338L39.3836 49.4865C39.1161 50.2883 39.8792 51.0511 40.681 50.7833L46.0306 48.9966L41.1677 44.1338Z" fill="#BA121A"/>
<path d="M57.0952 27.249L43.5889 40.7553L49.4138 46.5802C52.4664 43.527 58.4062 37.5865 62.9194 33.0732L57.0952 27.249Z" fill="#BA121A"/>
<path d="M68.7947 21.3668C68.0737 20.6418 67.0123 20.2273 65.8867 20.2273C64.7611 20.2273 63.6997 20.6418 62.9747 21.3689L59.9946 24.349L65.8186 30.1729C67.45 28.5413 68.5777 27.4136 68.7989 27.1926C70.4008 25.5882 70.4007 22.9749 68.7947 21.3668Z" fill="#BA121A"/>
<path d="M68.7988 27.1929C68.799 27.1929 68.799 27.1928 68.7991 27.1927C68.8043 27.1875 68.8066 27.1851 68.8109 27.1809C68.8066 27.1853 68.8043 27.1876 68.7988 27.1929Z" fill="#BA121A"/>
<path d="M68.811 27.1808C68.8176 27.1742 68.8253 27.1666 68.8292 27.1626C68.8251 27.1667 68.8176 27.1742 68.811 27.1808Z" fill="#BA121A"/>
<path d="M68.8291 27.1626C68.8424 27.1494 68.8426 27.1491 68.8291 27.1626V27.1626Z" fill="#BA121A"/>
</g>
<defs>
<clipPath id="clip0_80_449">
<rect width="70" height="70" fill="white"/>
</clipPath>
</defs>
</svg>
