<svg width="50" height="39" viewBox="0 0 50 39" fill="none" xmlns="http://www.w3.org/2000/svg">
<path d="M32.1461 21.9C30.2794 21.0333 28.8461 19.7333 27.8461 18C26.7794 16.3333 26.2461 14.3667 26.2461 12.1C26.2461 8.76667 27.3128 6.06667 29.4461 4C31.5794 1.93333 34.3128 0.9 37.6461 0.900001C40.9794 0.900001 43.7128 1.93333 45.8461 4C47.9794 6.06667 49.0461 8.76667 49.0461 12.1C49.0461 13.6333 48.8461 15.1667 48.4461 16.7C48.0461 18.2333 47.1461 20.5 45.7461 23.5L39.3461 38.2L27.4461 38.2L32.1461 21.9ZM5.94609 21.9C4.07943 21.0333 2.64609 19.7333 1.64609 18C0.579428 16.3333 0.0460959 14.3667 0.0460961 12.1C0.0460964 8.76666 1.11276 6.06666 3.2461 4C5.37943 1.93333 8.11276 0.899998 11.4461 0.899998C14.7794 0.899999 17.5128 1.93333 19.6461 4C21.7794 6.06667 22.8461 8.76667 22.8461 12.1C22.8461 13.6333 22.6461 15.1667 22.2461 16.7C21.8461 18.2333 20.9461 20.5 19.5461 23.5L13.1461 38.2L1.2461 38.2L5.94609 21.9Z" fill="#BA121A"/>
</svg>
